<svg width="64" height="64" viewBox="64 0 384 384" fill="none" xmlns="http://www.w3.org/2000/svg">
<circle cx="192" cy="192" r="128" fill="#1A1414"/>
<path d="M112.812 214.625C111.667 214.625 111.094 214.021 111.094 212.812V170.312C111.094 169.042 111.667 168.406 112.812 168.406H120.062C120.354 168.406 120.573 168.542 120.719 168.812C120.865 169.083 120.938 169.385 120.938 169.719C120.938 170.052 120.865 170.354 120.719 170.625C120.573 170.896 120.354 171.031 120.062 171.031H114.094V212H120.062C120.354 212 120.573 212.135 120.719 212.406C120.865 212.677 120.938 212.979 120.938 213.312C120.938 213.646 120.865 213.948 120.719 214.219C120.573 214.49 120.354 214.625 120.062 214.625H112.812ZM153.125 210.5C152.167 210.5 151.375 210.198 150.75 209.594C150.125 208.969 149.812 208.177 149.812 207.219C149.812 206.26 150.125 205.469 150.75 204.844C151.396 204.219 152.188 203.906 153.125 203.906C154.062 203.906 154.844 204.229 155.469 204.875C156.115 205.5 156.438 206.281 156.438 207.219C156.438 208.177 156.115 208.969 155.469 209.594C154.844 210.198 154.062 210.5 153.125 210.5ZM191.875 210.5C190.917 210.5 190.125 210.198 189.5 209.594C188.875 208.969 188.562 208.177 188.562 207.219C188.562 206.26 188.875 205.469 189.5 204.844C190.146 204.219 190.938 203.906 191.875 203.906C192.812 203.906 193.594 204.229 194.219 204.875C194.865 205.5 195.188 206.281 195.188 207.219C195.188 208.177 194.865 208.969 194.219 209.594C193.594 210.198 192.812 210.5 191.875 210.5ZM230.625 210.5C229.667 210.5 228.875 210.198 228.25 209.594C227.625 208.969 227.312 208.177 227.312 207.219C227.312 206.26 227.625 205.469 228.25 204.844C228.896 204.219 229.688 203.906 230.625 203.906C231.562 203.906 232.344 204.229 232.969 204.875C233.615 205.5 233.938 206.281 233.938 207.219C233.938 208.177 233.615 208.969 232.969 209.594C232.344 210.198 231.562 210.5 230.625 210.5ZM264.125 214.625C263.833 214.625 263.615 214.49 263.469 214.219C263.323 213.948 263.25 213.646 263.25 213.312C263.25 212.979 263.323 212.677 263.469 212.406C263.615 212.135 263.833 212 264.125 212H270.094V171.031H264.125C263.833 171.031 263.615 170.896 263.469 170.625C263.323 170.354 263.25 170.052 263.25 169.719C263.25 169.385 263.323 169.083 263.469 168.812C263.615 168.542 263.833 168.406 264.125 168.406H271.375C272.521 168.406 273.094 169.01 273.094 170.219V212.719C273.094 213.99 272.521 214.625 271.375 214.625H264.125Z" fill="#B95F9E"/>
</svg>
